<?xml version="1.0" encoding="UTF-8"?>
<svg id="SVGDoc"
     width="19"
     height="18"
     xmlns="http://www.w3.org/2000/svg"
     version="1.1"
     viewBox="0 0 19 18">
    <g><g><title>icon</title>
        <path d="M16.2366,2.70032c1.1266,0.0199 2.2288,0.95409 1.6847,2.16783c-0.106,0.23635 -0.5844,1.19882 -1.3451,2.71327c-0.3106,0.61826 -0.6293,1.25111 -0.948,1.88287l-0.3081,0.61031l-0.0948,0.1877c-0.2586,0.6652 -0.8049,1.179 -1.4873,1.3955l-0.1328,0.0422h-9.071l-0.01288,-0.0007l-1.77672,-0.0004c-0.51142,0.0254 -0.92033,0.4343 -0.9446,0.9011l-0.00162,0.8461c0.0309,0.5151 0.44263,0.9264 0.90162,0.9539h0.15364c0.37065,-1.0487 1.37076,-1.8 2.54636,-1.8c1.1756,0 2.17571,0.7513 2.54636,1.8h2.10724c0.3707,-1.0487 1.3708,-1.8 2.5464,-1.8c1.4912,0 2.7,1.2088 2.7,2.7c0,1.4912 -1.2088,2.7 -2.7,2.7c-1.1756,0 -2.1757,-0.7513 -2.5464,-1.8h-2.10724c-0.37065,1.0487 -1.37076,1.8 -2.54636,1.8c-1.17602,0 -2.17644,-0.7519 -2.54677,-1.8011l-0.20431,-0.0004c-1.42244,-0.0808 -2.56178,-1.219 -2.64892,-2.6985l0.00111,-0.9446c0.07107,-1.4325 1.21421,-2.57838 2.68982,-2.65494l-0.88188,-6.17318l-0.00905,-0.12728c0,-0.58224 -0.29622,-1.27343 -0.6364,-1.6136c-0.08819,-0.0882 -0.481,-0.1864 -1.1636,-0.1864v-1.8c1.1174,0 1.92459,0.20179 2.4364,0.7136c0.30154,0.30155 0.56667,0.69844 0.76738,1.14083c0.14642,-0.0344 0.3005,-0.05249 0.46034,-0.05214zM13.2924,9.89997c0.1201,-0.06538 0.2134,-0.17302 0.2605,-0.304l0.0439,-0.10204l0.1166,-0.23084l0.3077,-0.60955c0.3182,-0.63092 0.6365,-1.26289 0.9335,-1.85413l0.013,-0.02596c0.5203,-1.03583 0.9178,-1.83219 1.1364,-2.27805l-12.49481,-0.89477l0.88191,6.17336c0.00862,0.06096 0.05265,0.10992 0.11044,0.12598zM12.6,16.1999c0.497,0 0.9,-0.4029 0.9,-0.9c0,-0.497 -0.403,-0.9 -0.9,-0.9c-0.4971,0 -0.9,0.403 -0.9,0.9c0,0.4971 0.4029,0.9 0.9,0.9zM5.4,14.3999c-0.49706,0 -0.9,0.403 -0.9,0.9c0,0.4971 0.40294,0.9 0.9,0.9c0.49706,0 0.9,-0.4029 0.9,-0.9c0,-0.497 -0.40294,-0.9 -0.9,-0.9z" fill="#000000"
              fill-opacity="1">
        </path></g></g></svg>
