<?xml version="1.0" encoding="UTF-8"?>
<svg
        id="SVGDoc"
        width="20"
        height="20"
        xmlns="http://www.w3.org/2000/svg"
        version="1.1"
        viewBox="0 0 20 20"><defs>

</defs><desc>Generated with Avocode.</desc>
    <g><g><title>icon</title>
        <path
                d="M10,19.9c-5.46762,0 -9.9,-4.4324 -9.9,-9.9c0,-5.46762 4.43238,-9.9 9.9,-9.9c5.4676,0 9.9,4.43238 9.9,9.9c0,5.4676 -4.4324,9.9 -9.9,9.9zM10,18.1c4.4735,0 8.1,-3.6265 8.1,-8.1c0,-4.47351 -3.6265,-8.1 -8.1,-8.1c-4.47351,0 -8.1,3.62649 -8.1,8.1c0,4.4735 3.62649,8.1 8.1,8.1zM14.2364,7.9364l-6.0364,6.0364l-3.33639,-3.3364l1.27279,-1.27279l2.0636,2.06359l4.7636,-4.76359z"
                fill="#27ae60"
                fill-opacity="1">

        </path></g></g></svg>
