<?xml version="1.0" encoding="UTF-8"?>
<svg
        id="SVGDoc"
        width="20"
        height="19"
        xmlns="http://www.w3.org/2000/svg"
        version="1.1"
        viewBox="0 0 20 19">
    <g>
        <g>
            <title>icon</title>
            <path
                    d="M19.9,6.40789c0,2.73409 -1.5244,5.37521 -4.364,7.92901c-1.4904,1.3405 -3.3934,2.6671 -4.7562,3.3728l-0.7798,0.4038l-0.77976,-0.4038c-1.36285,-0.7057 -3.26584,-2.0323 -4.75628,-3.3728c-2.83951,-2.5538 -4.36396,-5.19492 -4.36396,-7.92901c0,-3.62035 2.44479,-6.40789 5.80909,-6.40789c1.25616,0 2.1391,0.1699 3.12054,0.65532c0.3417,0.16901 0.66274,0.36948 0.96134,0.60086c0.31053,-0.24514 0.64493,-0.45525 1.00143,-0.62972c0.9628,-0.47125 1.8026,-0.62646 3.1055,-0.62645c3.3343,0.01381 5.8021,2.82585 5.8021,6.40788zM14.0942,1.80004c-1.0459,0 -1.6229,0.10664 -2.3104,0.44318c-0.4229,0.20701 -0.7982,0.48647 -1.1255,0.84161l-0.65615,0.71204l-0.66223,-0.70644c-0.32009,-0.34146 -0.68987,-0.6147 -1.10826,-0.82163c-0.7083,-0.35033 -1.32376,-0.46876 -2.32253,-0.46876c-2.31381,0 -4.00909,1.93294 -4.00909,4.60789c0,2.14202 1.27244,4.34647 3.76765,6.59067c1.36039,1.2235 3.10929,2.4463 4.33235,3.0878c1.22306,-0.6415 2.97196,-1.8643 4.33236,-3.0878c2.4952,-2.2442 3.7676,-4.44865 3.7676,-6.59067c0,-2.63783 -1.7206,-4.59841 -4.0058,-4.60789z"
                    fill="#000000"
                    fill-opacity="1">
            </path>
        </g>
    </g>
</svg>
